<svg xmlns="http://www.w3.org/2000/svg" viewBox="0 0 284.61 257.48"><defs><style>.cls-1{fill:#f8be4c;}.cls-2{fill:#2b3737;}</style></defs><g id="Calque_2" data-name="Calque 2"><g id="Calque_1-2" data-name="Calque 1"><path class="cls-1" d="M147.22.13A165,165,0,0,1,211.9,10.31c25.49,9.59,45.78,25.42,58.68,49.87,8.7,16.49,12.47,34.27,13.75,52.7,2.31,33.26-9.43,61.4-31.89,85.25-15.26,16.19-34.56,25.09-56.58,27.86-20,2.51-40.13,3-60.25,3.33a155.79,155.79,0,0,1-33.22-2.81c-3.26-.66-7.66-2.2-10,.57-2.49,3,.79,6.55,1.9,9.71,1.59,4.54,4.09,8.78,5,13.56,1.17,6.41-.64,8.34-6.86,6.43C80,253,67.73,248.55,57.24,240.58c-17.3-13.13-32.41-28.45-41.06-48.67C4.53,164.68-1.82,136.24.46,106.35c1.67-22,6.94-42.93,19.2-61.66C31.7,26.29,49.1,15.94,70,10.51,95.22,4,120.65-.69,147.22.13Zm-6.8,146.5c2.65-.18,5.33-.2,8-.58,4.58-.65,8.08-3.13,8.4-7.88.77-11.38,7.3-19.77,13.76-28.26,4.64-6.11,9.28-12.21,12.36-19.3,8.36-19.25-1.45-37.93-22-42.28-15.83-3.35-30.38.1-44.2,7.81C107,61.54,104.43,71,109.86,80.75c2.93,5.25,6.49,6.5,12.09,4.1,2.9-1.24,5.66-2.84,8.59-4,3.88-1.53,7.56-1.13,10.49,2.17,2.78,3.12,1.93,6.48.4,9.79a29.44,29.44,0,0,1-5.62,7.6c-7,7.48-11.73,16.11-13,26.42C121.15,140.75,126.55,146.8,140.42,146.63ZM145.13,158c-9.82,0-18.8,7.09-18.83,14.93,0,7.52,9.09,15.31,18,15.41,8.48.09,16.1-7.41,16.07-15.81C160.38,164.51,153.51,158,145.13,158Z"/><path class="cls-2" d="M140.42,146.63c-13.87.17-19.27-5.88-17.59-19.8,1.25-10.31,6-18.94,13-26.42a29.44,29.44,0,0,0,5.62-7.6c1.53-3.31,2.38-6.67-.4-9.79-2.93-3.3-6.61-3.7-10.49-2.17-2.93,1.16-5.69,2.76-8.59,4-5.6,2.4-9.16,1.15-12.09-4.1C104.43,71,107,61.54,116.69,56.14c13.82-7.71,28.37-11.16,44.2-7.81,20.56,4.35,30.37,23,22,42.28-3.08,7.09-7.72,13.19-12.36,19.3-6.46,8.49-13,16.88-13.76,28.26-.32,4.75-3.82,7.23-8.4,7.88C145.75,146.43,143.07,146.45,140.42,146.63Z"/><path class="cls-2" d="M145.13,158c8.38,0,15.25,6.55,15.28,14.53,0,8.4-7.59,15.9-16.07,15.81-9-.1-18.08-7.89-18-15.41C126.33,165.05,135.31,157.94,145.13,158Z"/></g></g></svg>